<?xml version="1.0" encoding="UTF-8"?>
<!DOCTYPE svg PUBLIC "-//W3C//DTD SVG 1.1//EN" "http://www.w3.org/Graphics/SVG/1.1/DTD/svg11.dtd">
<svg xmlns="http://www.w3.org/2000/svg" version="1.1" width="89px" height="74px" style="shape-rendering:geometricPrecision; text-rendering:geometricPrecision; image-rendering:optimizeQuality; fill-rule:evenodd; clip-rule:evenodd" xmlns:xlink="http://www.w3.org/1999/xlink">
<g><path style="opacity:0.707" fill="#19170e" d="M 45.5,-0.5 C 46.8333,-0.5 48.1667,-0.5 49.5,-0.5C 51.5,1.83333 53.5,4.16667 55.5,6.5C 52.5877,4.93366 49.921,2.93366 47.5,0.5C 45.9596,2.38676 44.2929,4.22009 42.5,6C 43.3805,6.7083 44.0472,7.54163 44.5,8.5C 42.7483,8.58245 41.7483,7.74911 41.5,6C 43.0427,3.95834 44.3761,1.79167 45.5,-0.5 Z"/></g>
<g><path style="opacity:1" fill="#f9e073" d="M 55.5,6.5 C 58.5628,10.5658 62.2294,13.8991 66.5,16.5C 68.8998,19.9031 71.8998,22.5698 75.5,24.5C 78.2311,28.2343 81.5644,31.2343 85.5,33.5C 86.1408,34.4822 86.8075,35.4822 87.5,36.5C 85.1442,39.1864 82.8109,41.853 80.5,44.5C 76.5644,46.7657 73.2311,49.7657 70.5,53.5C 66.8998,55.4302 63.8998,58.0969 61.5,61.5C 61.5,62.1667 61.1667,62.5 60.5,62.5C 56.5644,64.7657 53.2311,67.7657 50.5,71.5C 47.065,72.6539 44.3983,71.4873 42.5,68C 51.6978,59.6334 60.6978,51.1334 69.5,42.5C 70.7562,42.5386 71.7562,42.0386 72.5,41C 48.5023,40.5 24.5023,40.3334 0.5,40.5C 0.5,38.1667 0.5,35.8333 0.5,33.5C 24.9084,33.8326 48.5751,33.4993 71.5,32.5C 69.7607,29.7573 67.4274,27.7573 64.5,26.5C 61.7689,22.7657 58.4356,19.7657 54.5,17.5C 51.7689,13.7657 48.4356,10.7657 44.5,8.5C 44.0472,7.54163 43.3805,6.7083 42.5,6C 44.2929,4.22009 45.9596,2.38676 47.5,0.5C 49.921,2.93366 52.5877,4.93366 55.5,6.5 Z"/></g>
<g><path style="opacity:0.712" fill="#17150c" d="M 55.5,6.5 C 59.7706,9.10086 63.4372,12.4342 66.5,16.5C 62.2294,13.8991 58.5628,10.5658 55.5,6.5 Z"/></g>
<g><path style="opacity:0.708" fill="#110f07" d="M 44.5,8.5 C 48.4356,10.7657 51.7689,13.7657 54.5,17.5C 50.5644,15.2343 47.2311,12.2343 44.5,8.5 Z"/></g>
<g><path style="opacity:0.71" fill="#16140b" d="M 66.5,16.5 C 70.1002,18.4302 73.1002,21.0969 75.5,24.5C 71.8998,22.5698 68.8998,19.9031 66.5,16.5 Z"/></g>
<g><path style="opacity:0.711" fill="#121008" d="M 54.5,17.5 C 58.4356,19.7657 61.7689,22.7657 64.5,26.5C 60.5644,24.2343 57.2311,21.2343 54.5,17.5 Z"/></g>
<g><path style="opacity:0.708" fill="#16140b" d="M 75.5,24.5 C 79.4356,26.7657 82.7689,29.7657 85.5,33.5C 81.5644,31.2343 78.2311,28.2343 75.5,24.5 Z"/></g>
<g><path style="opacity:0.886" fill="#201d11" d="M 64.5,26.5 C 67.4274,27.7573 69.7607,29.7573 71.5,32.5C 70.8333,32.5 70.1667,32.5 69.5,32.5C 67.8333,30.5 66.1667,28.5 64.5,26.5 Z"/></g>
<g><path style="opacity:1" fill="#7f723a" d="M -0.5,32.5 C 22.8333,32.5 46.1667,32.5 69.5,32.5C 70.1667,32.5 70.8333,32.5 71.5,32.5C 48.5751,33.4993 24.9084,33.8326 0.5,33.5C 0.5,35.8333 0.5,38.1667 0.5,40.5C 0.166667,40.5 -0.166667,40.5 -0.5,40.5C -0.5,37.8333 -0.5,35.1667 -0.5,32.5 Z"/></g>
<g><path style="opacity:0.706" fill="#030301" d="M -0.5,41.5 C -0.5,41.1667 -0.5,40.8333 -0.5,40.5C -0.166667,40.5 0.166667,40.5 0.5,40.5C 24.5023,40.3334 48.5023,40.5 72.5,41C 71.7562,42.0386 70.7562,42.5386 69.5,42.5C 46.3393,41.5025 23.006,41.1691 -0.5,41.5 Z"/></g>
<g><path style="opacity:0.711" fill="#0a0804" d="M 85.5,33.5 C 86.609,33.5569 87.609,33.8902 88.5,34.5C 88.5,35.8333 88.5,37.1667 88.5,38.5C 86.0976,40.9092 83.4309,42.9092 80.5,44.5C 82.8109,41.853 85.1442,39.1864 87.5,36.5C 86.8075,35.4822 86.1408,34.4822 85.5,33.5 Z"/></g>
<g><path style="opacity:0.708" fill="#0b0a04" d="M 80.5,44.5 C 77.7689,48.2343 74.4356,51.2343 70.5,53.5C 73.2311,49.7657 76.5644,46.7657 80.5,44.5 Z"/></g>
<g><path style="opacity:0.717" fill="#0c0a04" d="M 70.5,53.5 C 68.1002,56.9031 65.1002,59.5698 61.5,61.5C 63.8998,58.0969 66.8998,55.4302 70.5,53.5 Z"/></g>
<g><path style="opacity:0.706" fill="#1c190f" d="M 69.5,42.5 C 60.6978,51.1334 51.6978,59.6334 42.5,68C 44.3983,71.4873 47.065,72.6539 50.5,71.5C 50.1667,72.1667 49.8333,72.8333 49.5,73.5C 48.1667,73.5 46.8333,73.5 45.5,73.5C 44.5423,72.0384 43.3756,70.7051 42,69.5C 41.3333,68.5 41.3333,67.5 42,66.5C 50.7621,57.8957 59.9288,49.8957 69.5,42.5 Z"/></g>
<g><path style="opacity:0.708" fill="#0a0904" d="M 60.5,62.5 C 57.7689,66.2343 54.4356,69.2343 50.5,71.5C 53.2311,67.7657 56.5644,64.7657 60.5,62.5 Z"/></g>
</svg>
