<?xml version="1.0" encoding="UTF-8"?>
<svg id="Ebene_1" data-name="Ebene 1" xmlns="http://www.w3.org/2000/svg" version="1.1" viewBox="0 0 283.5 79.4">
  <defs>
    <style>
      .cls-1 {
        fill: #ffe576;
        stroke-width: 0px;
      }
    </style>
  </defs>
  <g>
    <path class="cls-1" d="M12.5,37.9L6.2,11.7h6.3l2,10.8c.6,3.1,1.1,6.5,1.6,9.2h0c.4-2.8,1.1-6,1.7-9.2l2.2-10.7h6.3l2.1,11c.6,3.1,1,5.9,1.4,8.8h0c.4-2.9,1-6,1.5-9.1l2.1-10.7h6l-6.8,26.2h-6.4l-2.2-11.3c-.5-2.6-.9-5.1-1.2-8.1h0c-.5,3-.9,5.4-1.5,8.1l-2.5,11.3h-6.5.2,0Z"/>
    <path class="cls-1" d="M47.6,13.6c0,1.6-1.2,3-3.2,3s-3.1-1.3-3.1-3,1.2-3,3.1-3,3.1,1.3,3.1,3h.1ZM41.5,37.9v-19h5.9v19h-5.9Z"/>
    <path class="cls-1" d="M52.2,25.2c0-2.8,0-4.6-.2-6.3h5.1l.2,3.5h.2c1-2.8,3.3-4,5.1-4s.8,0,1.2.1v5.6c-.5,0-.9-.2-1.6-.2-2.2,0-3.7,1.2-4,3v10.9h-5.9v-12.7h0Z"/>
    <path class="cls-1" d="M74.8,10.3h5.9v10.8h0c1.1-1.6,3.1-2.7,5.8-2.7,4.5,0,7.9,3.8,7.8,9.6,0,6.8-4.3,10.3-8.7,10.3s-4.4-.8-5.7-3.1h0l-.2,2.6h-5c0-1.2.2-3.5.2-5.7V10.3h-.1ZM80.7,29.8v1c.4,1.6,1.7,2.8,3.5,2.8s4.1-1.9,4.1-5.4-1.3-5.3-4.1-5.3-3.1,1.2-3.5,2.9v3.9h0Z"/>
    <path class="cls-1" d="M102.7,30.3c.2,2.4,2.6,3.6,5.4,3.6s3.7-.3,5.2-.8l.8,4c-1.9.8-4.3,1.2-6.9,1.2-6.5,0-10.1-3.7-10.1-9.7s3-10.1,9.6-10.1,8.5,4.8,8.5,9.5,0,1.9-.2,2.3c0,0-12.3,0-12.3,0ZM109.7,26.3c0-1.4-.6-3.8-3.3-3.8s-3.5,2.3-3.7,3.8h7Z"/>
    <path class="cls-1" d="M137.5,28.2c0,7-4.9,10.1-10,10.1s-9.8-3.7-9.8-9.8,4-10.1,10.2-10.1,9.7,4,9.7,9.8h0ZM123.7,28.4c0,3.3,1.4,5.7,3.9,5.7s3.8-2.3,3.8-5.8-1.1-5.7-3.8-5.7-3.9,2.9-3.9,5.7h0Z"/>
    <path class="cls-1" d="M141.1,10.3h5.9v10.8h0c1.1-1.6,3.1-2.7,5.8-2.7,4.5,0,7.9,3.8,7.8,9.6,0,6.8-4.3,10.3-8.7,10.3s-4.4-.8-5.7-3.1h0l-.2,2.6h-5c0-1.2.2-3.5.2-5.7V10.3h-.1ZM147.1,29.8c0,.4,0,.7.1,1,.4,1.6,1.8,2.8,3.5,2.8,2.5,0,4.1-1.9,4.1-5.4s-1.3-5.3-4.1-5.3-3.1,1.2-3.5,2.9c0,.3-.1.7-.1,1.1v2.8h0Z"/>
    <path class="cls-1" d="M180.2,33.3c0,1.8,0,3.5.3,4.6h-5.3l-.3-1.9h-.1c-1.2,1.5-3.2,2.3-5.4,2.3-3.8,0-6.1-2.8-6.1-5.8,0-4.9,4.4-7.3,11.2-7.3v-.2c0-1-.5-2.5-3.5-2.5s-4,.7-5.2,1.4l-1.1-3.8c1.3-.7,3.9-1.7,7.4-1.7,6.3,0,8.3,3.7,8.3,8.2v6.6h-.2,0ZM174.5,28.9c-3.1,0-5.5.7-5.5,3s1,2.3,2.3,2.3,2.7-1,3.1-2.2c0-.3.1-.7.1-1v-2.1h0Z"/>
    <path class="cls-1" d="M199.2,37.4c-1,.5-3,.9-5.3.9-6.1,0-10.1-3.8-10.1-9.7s3.8-10.1,10.9-10.1,3.3.3,4.5.7l-.9,4.4c-.7-.3-1.7-.6-3.3-.6-3.1,0-5.1,2.2-5.1,5.3s2.3,5.3,5.2,5.3,2.5-.2,3.4-.6l.7,4.4h0Z"/>
    <path class="cls-1" d="M202.5,10.3h5.9v10.9h0c.6-.9,1.4-1.5,2.3-2,.9-.5,2-.7,3.1-.7,3.8,0,6.6,2.6,6.6,8.4v11.1h-5.9v-10.5c0-2.5-.9-4.2-3.1-4.2s-2.5,1-3,2.1c-.2.3-.2.9-.2,1.3v11.3h-5.9V10.3h.2,0Z"/>
    <path class="cls-1" d="M231.6,13.8v5.1h4.2v4.4h-4.2v6.9c0,2.3.6,3.3,2.3,3.3s1.2,0,1.7-.2v4.5c-.7.3-2.1.5-3.8.5s-3.5-.7-4.5-1.6c-1.1-1.1-1.6-3-1.6-5.6v-7.8h-2.5v-4.4h2.5v-3.5l5.8-1.6s.1,0,.1,0Z"/>
    <path class="cls-1" d="M243.6,30.3c.2,2.4,2.6,3.6,5.4,3.6s3.7-.3,5.2-.8l.8,4c-1.9.8-4.3,1.2-6.9,1.2-6.5,0-10.1-3.7-10.1-9.7s3-10.1,9.6-10.1,8.5,4.8,8.5,9.5-.1,1.9-.2,2.3c0,0-12.3,0-12.3,0ZM250.6,26.3c0-1.4-.6-3.8-3.3-3.8s-3.5,2.3-3.7,3.8h7Z"/>
    <path class="cls-1" d="M259.6,25c0-2.4,0-4.4-.2-6.1h5.1l.3,2.6h.1c.8-1.2,2.7-3.1,5.9-3.1s6.8,2.6,6.8,8.2v11.2h-5.9v-10.5c0-2.4-.9-4.1-3-4.1s-2.6,1.1-3,2.2c-.2.4-.2.9-.2,1.5v11h-5.9v-12.9h0Z"/>
  </g>
  <g>
    <path class="cls-1" d="M162.2,70.9l6-7.5c1.1-1.2,1.9-2.2,3-3.3h-8.3v-4.7h15.5v3.6l-5.7,7.2c-1,1.2-2,2.4-3.1,3.5h9.1v4.7h-16.5v-3.4h0Z"/>
    <path class="cls-1" d="M199.9,68.2c0,2.5,0,4.5.2,6.1h-5.1l-.3-2.7h-.1c-.7,1.2-2.5,3.1-5.9,3.1s-6.7-2.4-6.7-8.3v-11.2h5.9v10.2c0,2.8.9,4.4,3,4.4s2.6-1.1,3-2.1c.2-.3.2-.8.2-1.3v-11.3h5.9v13.1h0Z"/>
    <path class="cls-1" d="M204.7,61.6c0-2.8,0-4.6-.2-6.3h5.1l.2,3.5h.2c1-2.8,3.3-4,5.1-4s.8,0,1.2,0v5.6c-.5,0-.9-.2-1.6-.2-2.2,0-3.7,1.2-4,3,0,.4-.1.9-.1,1.3v9.6h-5.9v-12.7h0v.2Z"/>
    <path class="cls-1" d="M237.2,68.2c0,2.5,0,4.5.2,6.1h-5.1l-.3-2.7h-.1c-.7,1.2-2.5,3.1-5.9,3.1s-6.7-2.4-6.7-8.3v-11.2h5.9v10.2c0,2.8.9,4.4,3,4.4s2.6-1.1,3-2.1c.2-.3.2-.8.2-1.3v-11.3h5.9v13.1h0ZM221.6,50c0-1.6,1.2-2.7,2.8-2.7s2.6,1.2,2.6,2.7-1.1,2.8-2.7,2.8-2.8-1.2-2.8-2.8h0ZM232.5,52.7c-1.5,0-2.7-1.2-2.7-2.8s1.2-2.7,2.8-2.7,2.7,1.2,2.7,2.7-1.1,2.8-2.7,2.8h-.1Z"/>
    <path class="cls-1" d="M256.3,73.8c-1,.5-3,.9-5.3.9-6.1,0-10.1-3.8-10.1-9.7s3.8-10.1,10.9-10.1,3.3.3,4.5.7l-.9,4.4c-.7-.3-1.8-.6-3.3-.6-3.1,0-5.1,2.2-5.1,5.3s2.3,5.3,5.2,5.3,2.5-.2,3.4-.6l.7,4.4h0Z"/>
    <path class="cls-1" d="M265.4,63.3h0c.4-.8.9-1.6,1.4-2.3l3.8-5.7h7.1l-6.8,7.7,7.8,11.3h-7.3l-4.6-7.8-1.5,1.9v5.9h-5.9v-27.6h5.9v16.6s.1,0,.1,0Z"/>
  </g>
  <rect class="cls-1" x="7.9" y="63.2" width="145.2" height="5.4"/>
</svg>